<?xml version="1.0" standalone="no"?>
<!DOCTYPE svg PUBLIC "-//W3C//DTD SVG 20010904//EN"
 "http://www.w3.org/TR/2001/REC-SVG-20010904/DTD/svg10.dtd">
<svg version="1.0" xmlns="http://www.w3.org/2000/svg"
 width="82.000000pt" height="82.000000pt" viewBox="0 0 82.000000 82.000000"
 preserveAspectRatio="xMidYMid meet">
<metadata>
Created by potrace 1.14, written by Peter Selinger 2001-2017
</metadata>
<g transform="translate(0.000000,82.000000) scale(0.100000,-0.100000)"
fill="#000000" stroke="none">
<path d="M530 800 c-36 -10 -112 -33 -170 -50 -145 -44 -220 -43 -332 5 -17 7
-18 -2 -18 -104 l0 -111 42 -22 c32 -16 63 -22 120 -24 79 -2 120 7 298 66 56
18 123 33 161 35 57 3 75 -1 123 -25 l56 -29 0 103 c0 94 -2 104 -23 124 -57
53 -144 64 -257 32z"/>
<path d="M565 570 c-38 -10 -110 -32 -160 -49 -159 -53 -256 -59 -343 -21 -23
10 -42 18 -43 17 -1 -1 -2 -48 -4 -105 -2 -117 -1 -119 86 -145 47 -14 89 -14
166 -1 59 9 37 3 172 48 150 49 225 58 287 35 25 -10 55 -26 65 -35 19 -17 19
-14 19 94 0 107 -1 111 -26 131 -55 43 -131 54 -219 31z"/>
<path d="M595 344 c-6 -1 -77 -24 -160 -51 -137 -44 -158 -48 -245 -48 -60 1
-106 6 -125 15 -16 8 -34 14 -40 14 -6 1 -10 -41 -10 -101 l-1 -103 46 -22
c36 -18 61 -22 130 -22 74 1 104 7 230 49 183 60 267 66 343 23 l47 -27 0 103
c0 111 -5 123 -70 156 -22 12 -118 21 -145 14z"/>
</g>
</svg>
